Coordinates
version=1
nRows=6
nColumns=36
inDegrees=yes

Units are S.I. units (second, meters, Newtons, ...)
If the header above contains a line with 'inDegrees', this indicates whether rotational values are in degrees (yes) or radians (no).

endheader
time	pelvis_tilt	pelvis_list	pelvis_rotation	pelvis_tx	pelvis_ty	pelvis_tz	hip_flexion_r	hip_adduction_r	hip_rotation_r	knee_angle_r	knee_angle_r_beta	ankle_angle_r	subtalar_angle_r	mtp_angle_r	hip_flexion_l	hip_adduction_l	hip_rotation_l	knee_angle_l	knee_angle_l_beta	ankle_angle_l	subtalar_angle_l	mtp_angle_l	lumbar_extension	lumbar_bending	lumbar_rotation	arm_flex_r	arm_add_r	arm_rot_r	elbow_flex_r	pro_sup_r	arm_flex_l	arm_add_l	arm_rot_l	elbow_flex_l	pro_sup_l
      3.26666670	     -2.09199921	      0.64173481	      1.04404153	      0.33138079	      0.93491370	     -0.01347183	     -1.75840385	     -2.68111423	      1.81244155	      1.47288129	      0.02570663	      0.40302529	    -13.66023832	     -7.49999987	     -1.11237513	     -3.01650117	      0.70095224	      1.83383078	      0.03200639	     -2.19664246	    -12.08314238	     -7.49999987	      3.78685164	     -2.57168602	      1.61513372	    107.09429367	    -13.38877193	     13.61732776	     39.09021091	     84.76733388	    116.59457798	     -6.89054087	     29.56814858	     26.49494144	     62.84876910
      3.28333330	     -2.17525060	      0.60549286	      1.04262546	      0.33147217	      0.93501170	     -0.01343263	     -1.65512566	     -2.65073588	      1.87480012	      1.52141188	      0.02655365	      0.35144529	    -13.65116537	     -7.49999987	     -1.04618783	     -3.03144854	      0.77196001	      1.82616441	      0.03187258	     -2.21757883	    -12.28520722	     -7.49999987	      3.99541924	     -2.55697106	      1.56747502	    107.72082863	    -13.50180299	     14.99022025	     39.24002731	     80.64732224	    116.99231685	     -7.11326489	     29.65571094	     27.00075544	     62.55617232
      3.30000000	     -2.05346236	      0.57747895	      1.02166125	      0.33142254	      0.93467638	     -0.01347833	     -1.77818152	     -2.63916569	      1.95513839	      1.52646659	      0.02664187	      0.32133748	    -13.72372458	     -7.49999987	     -1.19892022	     -3.03690876	      0.75257583	      1.82947178	      0.03193031	     -2.19073722	    -12.44243310	     -7.49999987	      3.87482486	     -2.55036599	      1.48618253	    108.70284644	    -14.00838215	     18.26862843	     39.62632947	     76.91300813	    117.73562435	     -7.51088964	     31.68436374	     27.42656705	     62.75802101
      3.31666670	     -2.09727079	      0.56261589	      1.08041154	      0.33152303	      0.93480300	     -0.01342515	     -1.71984012	     -2.62101144	      1.76291562	      1.51229887	      0.02639459	      0.39644704	    -13.59874614	     -7.49999987	     -1.13596624	     -3.05059556	      0.67830178	      1.85426872	      0.03236309	     -2.05655022	    -12.23129232	     -7.49999987	      4.01474162	     -2.55169573	      1.28670388	    109.06066568	    -13.71648311	     17.19772893	     39.57614755	     82.53667094	    118.35657458	     -8.02226055	     33.91265993	     27.39907593	     63.55778702
      3.33333330	     -2.12083579	      0.52330992	      1.14968575	      0.33148201	      0.93433682	     -0.01351709	     -1.70489716	     -2.59143505	      1.73761653	      1.48879088	      0.02598430	      0.34461939	    -13.67880452	     -7.49999987	     -1.08513490	     -3.08092797	      0.67157177	      1.90072755	      0.03317395	     -1.96980202	    -12.26391512	     -7.49999987	      4.05915522	     -2.46150245	      1.27347622	    109.89858701	    -13.84711867	     18.73770177	     39.47383422	     82.65881444	    118.73820095	     -8.22614633	     34.90202065	     27.77784273	     63.71360290
      3.35000000	     -2.12660934	      0.50341986	      1.21012803	      0.33154728	      0.93458220	     -0.01355975	     -1.70856275	     -2.55795987	      1.67018719	      1.45995112	      0.02548095	      0.30935023	    -13.66657397	     -7.49999987	     -1.08055787	     -3.10788831	      0.73386755	      1.90548753	      0.03325703	     -2.10845488	    -12.53970296	     -7.49999987	      4.02227135	     -2.44120062	      1.27074108	    110.83063091	    -14.11240949	     20.60356062	     39.09290286	     79.00543719	    119.29711426	     -8.30567208	     36.11005054	     27.91881666	     63.42196835
